<?xml version="1.0" standalone="no"?>
<!DOCTYPE svg PUBLIC "-//W3C//DTD SVG 1.1//EN" "http://www.w3.org/Graphics/SVG/1.1/DTD/svg11.dtd" >
<svg>
<metadata>
Created by FontForge 20120731 at Mon May 26 08:28:58 2014
 By World Wide Web Server
Copyright 2001 Double Alex Font Studio.
</metadata>
<defs>
<font id="Plumb-Medium" horiz-adv-x="533" >
  <font-face 
    font-family="Plumb"
    font-weight="500"
    font-stretch="normal"
    units-per-em="1000"
    panose-1="2 0 6 3 4 0 0 2 0 4"
    ascent="800"
    descent="-200"
    x-height="507"
    cap-height="712"
    bbox="-35 -211 1137 927"
    underline-thickness="50"
    underline-position="-50"
    unicode-range="U+0020-2265"
  />
<missing-glyph horiz-adv-x="1000" 
 />
    <glyph glyph-name=".notdef" horiz-adv-x="1000" 
 />
    <glyph glyph-name=".null" horiz-adv-x="0" 
 />
    <glyph glyph-name="nonmarkingreturn" horiz-adv-x="240" 
 />
    <glyph glyph-name="space" unicode=" " horiz-adv-x="240" 
 />
    <glyph glyph-name="dollar" unicode="$" horiz-adv-x="608" 
d="M556 204q0 -60 -28.5 -105.5t-81.5 -72.5q-11 -6 -21.5 -10t-23 -7.5t-27.5 -6t-35 -5.5v-111h-81v108q-37 2 -67.5 7.5t-57 16t-51.5 28t-52 42.5l72 72q11 -10 19.5 -17.5t16 -13t15.5 -9.5t17 -8q23 -11 42.5 -15t54.5 -6v222l-26 3q-89 11 -138 61t-49 131
q0 83 50 138q33 36 70 49.5t84 20.5v90h81v-89q33 -3 57.5 -7.5t46 -13.5t42.5 -23t46 -36l-69 -68q-18 15 -29 22t-26 14q-17 8 -33.5 11.5t-42.5 6.5v-216l34 -5q46 -7 77.5 -19.5t54.5 -32.5q59 -51 59 -146zM267 622q-46 -6 -77 -30.5t-31 -77.5q0 -43 26 -67t82 -33
v208zM449 201q0 29 -9 47.5t-25 30.5t-37.5 18t-46.5 9v-214q25 4 46.5 11t37.5 19.5t25 31.5t9 47z" />
    <glyph glyph-name="percent" unicode="%" horiz-adv-x="841" 
d="M783 130q0 -61 -38.5 -98.5t-101.5 -37.5t-101.5 37t-38.5 99v101q0 61 38.5 98.5t101.5 37.5t101.5 -37.5t38.5 -98.5v-101v0zM294 0h-82l336 712h81zM339 481q0 -61 -39 -98.5t-102 -37.5t-101.5 37t-38.5 99v101q0 61 38.5 98.5t101.5 37.5t102 -37.5t39 -98.5v-101v0
zM707 228q0 72 -64 72t-64 -72v-95q0 -72 64 -72t64 72v95zM263 579q0 72 -65 72q-64 0 -64 -72v-95q0 -72 65 -72q64 0 64 72v95z" />
    <glyph glyph-name="ampersand" unicode="&#x26;" horiz-adv-x="730" 
d="M553 0l-58 70q-23 -20 -45 -34.5t-45.5 -23.5t-50 -13.5t-58.5 -4.5q-52 0 -94.5 14.5t-72 41.5t-45.5 65t-16 86q0 39 11 68.5t30 53.5t45 44t55 40q-30 35 -52 70.5t-22 84.5q0 34 13 62.5t35.5 49.5t54.5 32.5t69 11.5t68.5 -11.5t54 -32.5t35.5 -50t13 -63
q0 -29 -11 -52.5t-29 -43t-41 -36.5t-47 -32l150 -180q11 17 15.5 26.5t8.5 22.5q7 20 9.5 40t4.5 55h98q-1 -27 -3 -46.5t-5 -35.5t-7.5 -30.5t-10.5 -30.5q-4 -11 -8 -19.5t-9 -17.5t-11.5 -18.5t-16.5 -21.5l119 -141h-131zM380 559q0 31 -20 50.5t-51 19.5t-50.5 -19
t-19.5 -49q0 -29 18.5 -54t36.5 -46q13 9 28 18.5t28 21t21.5 26t8.5 32.5zM265 343q-19 -13 -36 -26.5t-30.5 -29.5t-21.5 -35t-8 -45q0 -53 36.5 -86.5t94.5 -33.5q41 0 72 14.5t62 40.5z" />
    <glyph glyph-name="quotesingle" unicode="'" horiz-adv-x="257" 
d="M78 521v191h101v-191h-101z" />
    <glyph glyph-name="parenleft" unicode="(" horiz-adv-x="318" 
d="M190 -94l-22.5 22.5t-16.5 17t-12.5 13.5t-10.5 13q-12 16 -20 31t-13 32t-7 37t-2 45v478q0 40 5.5 66.5t17.5 49.5q6 12 16 24.5t21 25t23 24.5l21 21l68 -69q-11 -8 -25 -25t-22 -28q-13 -20 -18 -41.5t-5 -53.5v-466q0 -32 5 -53.5t23 -47.5q7 -10 20 -25.5t22 -21.5
z" />
    <glyph glyph-name="parenright" unicode=")" horiz-adv-x="318" 
d="M231 117q0 -41 -5 -67t-18 -49q-16 -28 -37 -50t-43 -45l-70 70q14 17 29 31t26 35q15 30 15 81v466q0 27 -4 47t-11 34q-8 17 -25 35t-30 31l70 70q16 -16 31.5 -32t29.5 -34q12 -16 20.5 -31t13 -31.5t6.5 -36.5t2 -46v-478v0z" />
    <glyph glyph-name="asterisk" unicode="*" horiz-adv-x="484" 
d="M387 401l-111 69l4 -131h-76l5 131l-111 -69l-37 65l115 61l-115 62l37 65l111 -69l-5 130h76l-4 -130l111 69l37 -65l-115 -62l115 -61z" />
    <glyph glyph-name="plus" unicode="+" 
d="M315 225v-168h-96v168h-168v95h168v167h96v-167h167v-95h-167z" />
    <glyph glyph-name="comma" unicode="," horiz-adv-x="272" 
d="M108 -118h-86l61 247h118z" />
    <glyph glyph-name="hyphen" unicode="-" horiz-adv-x="426" 
d="M67 230v95h292v-95h-292z" />
    <glyph glyph-name="hyphen" unicode="&#xad;" horiz-adv-x="426" 
d="M67 230v95h292v-95h-292z" />
    <glyph glyph-name="period" unicode="." horiz-adv-x="284" 
d="M215 70q0 -30 -21.5 -51.5t-51.5 -21.5t-51.5 21.5t-21.5 50.5q0 30 21.5 51.5t51.5 21.5q14 0 27.5 -6t23.5 -15.5t16 -22.5t6 -28z" />
    <glyph glyph-name="slash" unicode="/" horiz-adv-x="380" 
d="M97 -74h-97l285 860h97z" />
    <glyph glyph-name="zero" unicode="0" 
d="M472 198q0 -45 -15 -82.5t-42 -64.5t-65 -42t-83 -15q-46 0 -84 15t-65.5 42t-42.5 64.5t-15 82.5v316q0 45 15 82.5t42.5 64.5t65.5 42t84 15q45 0 82.5 -15t65 -42t42.5 -64.5t15 -82.5v-316v0zM371 511q0 53 -28 84.5t-76 31.5t-76.5 -31.5t-28.5 -84.5v-310
q0 -53 28.5 -84.5t76.5 -31.5t76 31.5t28 84.5v310z" />
    <glyph glyph-name="one" unicode="1" 
d="M253 0v601l-139 -121v111l139 121h102v-712h-102z" />
    <glyph glyph-name="two" unicode="2" 
d="M63 0v91l274 333q20 25 29 47t9 48q0 50 -28 79t-76 29q-100 0 -105 -110h-102q1 16 2 27.5t2.5 21t4.5 18t7 17.5q24 56 74 86.5t118 30.5q46 0 83.5 -14.5t64.5 -40.5t42 -62.5t15 -81.5q0 -21 -3.5 -39t-11 -36t-20.5 -37t-32 -42l-223 -274h290v-91h-414z" />
    <glyph glyph-name="three" unicode="3" 
d="M478 201q0 -47 -15.5 -85.5t-44 -65.5t-69 -41.5t-90.5 -14.5q-49 0 -90.5 14.5t-70.5 42.5q-31 29 -42 64.5t-14 77.5h102q9 -108 116 -108q54 0 85 32t31 87q0 56 -31 86t-88 30h-17v89h17q52 0 80 28t28 79t-29 81t-77 30q-93 0 -107 -102h-102q3 30 6.5 46t11.5 34
q24 54 75 83.5t117 29.5q46 0 84 -14.5t65.5 -40.5t42.5 -63t15 -81q0 -56 -21 -90.5t-68 -60.5q53 -26 76.5 -66t23.5 -101z" />
    <glyph glyph-name="four" unicode="4" 
d="M422 107v-107h-99v107h-288v95l251 510h110l-250 -510h177v166h99v-166h75v-95h-75z" />
    <glyph glyph-name="five" unicode="5" 
d="M478 236q0 -69 -14 -112t-46 -75q-55 -55 -149 -55q-48 0 -87 14t-65 40q-28 28 -39 63t-15 73h102q9 -53 32.5 -76t70.5 -23q48 0 76 28q17 19 25 47.5t8 76.5q0 79 -25 114.5t-80 35.5q-36 0 -61.5 -14.5t-38.5 -48.5h-93v388h384v-91h-291v-189q23 23 54 33t63 10
q81 0 128 -47q32 -32 46.5 -76.5t14.5 -115.5z" />
    <glyph glyph-name="six" unicode="6" 
d="M476 210q0 -48 -15 -88t-42.5 -68.5t-66.5 -44t-86 -15.5t-86 15t-66.5 42.5t-42.5 66.5t-15 86q0 20 2.5 39t9 39.5t16.5 45t25 54.5l162 330h109l-153 -307q16 7 30.5 9.5t31.5 2.5q41 0 75.5 -15.5t59 -43t38.5 -65.5t14 -83zM375 206q0 57 -29.5 91.5t-79.5 34.5
t-79 -33t-29 -90t29 -90.5t79 -33.5q49 0 79 33.5t30 87.5z" />
    <glyph glyph-name="seven" unicode="7" 
d="M249 0h-110l239 621h-217v-112h-98v203h424v-91z" />
    <glyph glyph-name="eight" unicode="8" 
d="M486 200q0 -45 -16 -83t-45.5 -65.5t-69.5 -42.5t-88 -15t-88.5 15t-70 42.5t-45.5 65.5t-16 83q0 60 25.5 98t72.5 70q-40 28 -63 65t-23 88q0 43 15.5 79t43 62.5t66 41t83.5 14.5t83 -14.5t65.5 -41t43 -62.5t15.5 -78q0 -50 -23 -88.5t-63 -65.5q47 -32 72.5 -70
t25.5 -98zM372 516q0 49 -29.5 80t-75.5 31q-47 0 -76.5 -30.5t-29.5 -78.5t29.5 -78t76.5 -30q45 0 75 30t30 76zM384 201q0 26 -9 48t-24.5 38.5t-37 25.5t-46.5 9t-46.5 -9t-37.5 -25t-25 -38t-9 -47t9 -46.5t25 -37.5t37.5 -25t46.5 -9q24 0 45.5 9t37.5 25t25 37t9 45z
" />
    <glyph glyph-name="nine" unicode="9" 
d="M477 507q0 -39 -12 -78.5t-41 -98.5l-162 -330h-109l154 307q-17 -7 -31.5 -9.5t-32.5 -2.5q-41 0 -75.5 15.5t-59 43t-38.5 65.5t-14 83q0 48 15.5 88t43 68.5t66.5 44t86 15.5t85.5 -15t66.5 -43t43 -67t15 -86zM375 501q0 58 -29.5 92t-79.5 34t-79 -33.5t-29 -89.5
q0 -57 29 -90.5t79 -33.5q49 0 79 33.5t30 87.5z" />
    <glyph glyph-name="colon" unicode=":" horiz-adv-x="272" 
d="M209 411q0 -31 -21.5 -52t-51.5 -21t-51 21t-21 51t21 51.5t51 21.5q29 0 51 -21.5t22 -50.5zM209 71q0 -31 -21.5 -52.5t-51.5 -21.5t-51 21.5t-21 50.5q0 30 21 51.5t51 21.5q15 0 28 -5.5t23 -15.5t16 -23t6 -27z" />
    <glyph glyph-name="semicolon" unicode=";" horiz-adv-x="272" 
d="M209 411q0 -31 -21.5 -52t-51.5 -21t-51 21t-21 51t21 51.5t51 21.5q29 0 51 -21.5t22 -50.5zM108 -118h-86l61 247h118z" />
    <glyph glyph-name="semicolon" unicode="&#x37e;" horiz-adv-x="272" 
d="M209 411q0 -31 -21.5 -52t-51.5 -21t-51 21t-21 51t21 51.5t51 21.5q29 0 51 -21.5t22 -50.5zM108 -118h-86l61 247h118z" />
    <glyph glyph-name="less" unicode="&#x3c;" 
d="M36 229v100l460 183v-102l-347 -131l347 -130v-103z" />
    <glyph glyph-name="equal" unicode="=" 
d="M51 327v95h431v-95h-431zM51 133v95h431v-95h-431z" />
    <glyph glyph-name="greater" unicode="&#x3e;" 
d="M36 46v103l348 130l-348 131v102l460 -183v-100z" />
    <glyph glyph-name="question" unicode="?" horiz-adv-x="510" 
d="M470 528q0 -32 -11.5 -60.5t-36.5 -63.5l-77 -108q-8 -11 -13 -26t-5 -28v-30h-102v35q0 29 7.5 51t26.5 48l78 106q17 23 24 40.5t7 36.5q0 42 -28 70t-70 28q-45 0 -70 -26.5t-27 -74.5h-102q2 26 5 43t10 34q23 54 71 84.5t113 30.5q43 0 79.5 -14.5t63.5 -40t42 -60
t15 -75.5zM340 62q0 -27 -19 -46t-46 -19t-45.5 19t-18.5 45q0 27 18.5 46t45.5 19q26 0 45.5 -19t19.5 -45z" />
    <glyph glyph-name="at" unicode="@" horiz-adv-x="736" 
d="M576 0v50q-15 -16 -28 -26.5t-27.5 -17t-31.5 -9.5t-39 -3q-83 0 -132 55q-13 15 -22 32t-14 39t-7.5 51t-2.5 69q0 69 10 109.5t34 68.5q48 57 133 57q41 0 69 -13.5t56 -42.5v61q0 71 -36.5 108t-106.5 37h-127q-68 0 -104 -36q-20 -20 -28.5 -45.5t-8.5 -63.5v-312
q0 -21 2 -36t7.5 -27t15.5 -23t25 -24l-70 -70q-27 23 -39.5 37t-21.5 33q-9 20 -13.5 45.5t-4.5 60.5v317q0 234 231 234h146q230 0 230 -234v-483zM574 233q0 83 -24 119.5t-78 36.5t-77.5 -37t-23.5 -118t23.5 -118t77.5 -37q53 0 77.5 36.5t24.5 117.5z" />
    <glyph glyph-name="A" unicode="A" horiz-adv-x="625" 
d="M503 0l-50 143h-281l-50 -143h-114l261 712h87l260 -712h-113zM315 551l-112 -316h221z" />
    <glyph glyph-name="B" unicode="B" horiz-adv-x="663" 
d="M596 200q0 -93 -57.5 -146.5t-157.5 -53.5h-288v712h277q49 0 88.5 -13.5t67.5 -39t43.5 -60.5t15.5 -79q0 -108 -96 -155q53 -25 80 -64.5t27 -100.5zM477 513q0 48 -31 75t-85 27h-160v-204h160q54 0 85 27t31 75zM487 206q0 50 -31.5 79t-85.5 29h-169v-217h169
q54 0 85.5 29t31.5 80z" />
    <glyph glyph-name="C" unicode="C" horiz-adv-x="574" 
d="M522 78q-27 -25 -47 -39t-45 -25q-23 -10 -49 -15t-56 -5q-115 0 -189 76q-27 27 -41 58.5t-20 67.5t-7 76t-1 84q-1 4 -1 15t1 14q0 49 2.5 87t10 68t21 55t35.5 47q37 37 84.5 56.5t103.5 19.5q31 0 57 -5t49 -15q25 -11 45 -25t47 -39l-72 -73q-32 31 -59 45.5
t-67 14.5q-65 0 -106 -43q-15 -16 -23.5 -38.5t-12.5 -49.5t-5 -58t-1 -66v-32q0 -46 2 -78t6.5 -54.5t12.5 -38t21 -29.5q40 -43 106 -43q40 0 67 14.5t59 45.5l72 -73v0z" />
    <glyph glyph-name="D" unicode="D" horiz-adv-x="666" 
d="M599 362q0 -112 -9 -172q-5 -32 -22 -66t-40 -57q-67 -67 -185 -67h-250v712h250q46 0 87 -11.5t73 -34.5t54.5 -57.5t31.5 -81.5q5 -23 7.5 -49t2.5 -55v-61v0zM490 384q0 41 -2 70t-6.5 50t-11.5 36t-18 27q-40 48 -122 48h-129v-518h129q82 0 122 48q11 12 18 28
t11.5 39t6.5 54.5t2 74.5v43z" />
    <glyph glyph-name="E" unicode="E" horiz-adv-x="603" 
d="M93 0v712h456v-97h-348v-208h296v-96h-296v-214h348v-97h-456z" />
    <glyph glyph-name="F" unicode="F" horiz-adv-x="585" 
d="M201 615v-217h296v-97h-296v-301h-108v712h456v-97h-348z" />
    <glyph glyph-name="G" unicode="G" horiz-adv-x="641" 
d="M580 277q0 -72 -14.5 -118t-48.5 -83q-38 -40 -87.5 -61t-106.5 -21q-55 0 -102.5 19t-84.5 57q-51 52 -60 119q-9 56 -9 167v29q0 49 2.5 87t10 68.5t21 55t35.5 46.5q75 76 190 76q34 0 62 -5.5t52 -16.5q26 -12 47.5 -28t51.5 -44l-74 -73q-23 23 -39.5 36t-37.5 22
q-13 5 -29 8.5t-34 3.5q-52 0 -90.5 -28t-49.5 -80q-6 -29 -7.5 -68.5t-1.5 -88.5v-23q0 -46 2 -78t6.5 -54.5t12.5 -38t20 -28.5q41 -43 106 -43q35 0 65 13.5t50 37.5q17 22 25.5 49t8.5 63v39h-149v92h257v-108v0z" />
    <glyph glyph-name="H" unicode="H" horiz-adv-x="690" 
d="M489 0v311h-288v-311h-108v712h108v-305h288v305h109v-712h-109z" />
    <glyph glyph-name="I" unicode="I" horiz-adv-x="294" 
d="M93 0v712h108v-712h-108z" />
    <glyph glyph-name="J" unicode="J" horiz-adv-x="506" 
d="M423 225q0 -52 -17 -94.5t-48.5 -73t-75.5 -47t-98 -16.5q-55 0 -97 18q-21 8 -36 18t-38 33l72 71q25 -25 46.5 -34t53.5 -9q63 0 96.5 36.5t33.5 105.5v479h108v-487v0z" />
    <glyph glyph-name="K" unicode="K" horiz-adv-x="658" 
d="M521 0l-200 351l-120 -144v-207h-108v712h108v-358l290 358h133l-231 -279l255 -433h-127z" />
    <glyph glyph-name="L" unicode="L" horiz-adv-x="574" 
d="M93 0v712h108v-615h343v-97h-451z" />
    <glyph glyph-name="M" unicode="M" horiz-adv-x="813" 
d="M612 0v476l-164 -347h-80l-167 347v-476h-108v712h107l208 -443l205 443h108v-712h-109z" />
    <glyph glyph-name="N" unicode="N" horiz-adv-x="721" 
d="M530 0l-329 502v-502h-108v712h98l329 -501v501h108v-712h-98z" />
    <glyph glyph-name="O" unicode="O" horiz-adv-x="647" 
d="M580 356q0 -46 -1 -86t-7.5 -75.5t-20.5 -66.5t-40 -58q-74 -76 -188 -76q-113 0 -187 76q-26 27 -40 58.5t-20.5 67.5t-7.5 75t-1 80v38q0 44 2.5 80.5t9.5 67.5t21 57t36 48q37 37 84.5 56.5t102.5 19.5q56 0 103.5 -19.5t84.5 -56.5q42 -42 55.5 -101t13.5 -135v-50v0
zM471 363q0 81 -6 132t-36 82q-42 44 -106 44q-30 0 -57.5 -11t-48.5 -33q-16 -16 -24 -38.5t-12 -49.5t-4.5 -59t-0.5 -69v-67t3.5 -62.5t12 -54.5t25.5 -42q44 -44 106 -44q65 0 106 44q16 17 24.5 37.5t12.5 47.5t4.5 62.5t0.5 80.5z" />
    <glyph glyph-name="P" unicode="P" horiz-adv-x="629" 
d="M591 496q0 -48 -16.5 -87.5t-46.5 -68t-72 -44.5t-93 -16h-162v-280h-108v712h270q51 0 93 -15.5t72 -44t46.5 -68.5t16.5 -88zM483 496q0 56 -34 87.5t-93 31.5h-155v-238h155q59 0 93 32t34 87z" />
    <glyph glyph-name="Q" unicode="Q" horiz-adv-x="646" 
d="M543 -32l-71 70q-38 -24 -71 -34t-78 -10q-113 0 -187 76q-24 24 -40 54.5t-20 58.5q-2 19 -5.5 58.5t-3.5 100.5v59q0 50 3.5 86.5t11.5 64.5t21 49t33 41q37 37 84.5 56.5t102.5 19.5q56 0 103.5 -19t84.5 -57q23 -24 39.5 -55t20.5 -59q4 -23 6.5 -66t2.5 -106v-30
q0 -65 -3.5 -104t-13.5 -68q-5 -15 -11 -26.5t-19 -30.5l69 -70zM471 376q0 48 -2 80.5t-6.5 55t-13 37.5t-20.5 28q-20 22 -47.5 33t-58.5 11t-58.5 -11t-47.5 -33q-16 -18 -24.5 -38.5t-12.5 -43.5t-4 -48v-51v-63q0 -46 2 -77.5t6.5 -54t12.5 -37.5t20 -29
q20 -22 47.5 -33t58.5 -11q21 0 37.5 5t35.5 18l-75 75l60 60l69 -70q17 38 19 76.5t2 79.5v41z" />
    <glyph glyph-name="R" unicode="R" horiz-adv-x="655" 
d="M486 0l-150 300h-135v-300h-108v712h276q49 0 89.5 -15t70 -42.5t45.5 -65.5t16 -85q0 -93 -65 -149q-16 -14 -31.5 -22t-45.5 -18l164 -315h-126zM482 503q0 52 -32.5 82t-88.5 30h-160v-223h160q56 0 88.5 30t32.5 81z" />
    <glyph glyph-name="S" unicode="S" horiz-adv-x="590" 
d="M538 204q0 -99 -70.5 -154.5t-195.5 -55.5q-75 0 -131.5 21.5t-110.5 72.5l72 72q41 -38 82 -53.5t98 -15.5q72 0 110.5 28t38.5 82q0 27 -7.5 45t-21.5 30t-33.5 18.5t-43.5 9.5l-84 12q-187 27 -187 192q0 98 65 154t180 56q66 0 115.5 -19t98.5 -62l-69 -68
q-34 29 -69.5 42t-80.5 13q-64 0 -99.5 -29t-35.5 -82q0 -82 107 -99l81 -12q44 -6 79.5 -20t60 -37.5t38 -58t13.5 -82.5z" />
    <glyph glyph-name="T" unicode="T" horiz-adv-x="560" 
d="M334 615v-615h-108v615h-196v97h500v-97h-196z" />
    <glyph glyph-name="U" unicode="U" horiz-adv-x="675" 
d="M593 240q0 -54 -19 -99t-53 -77.5t-81 -51t-103 -18.5q-55 0 -102 18.5t-81 51t-53 77.5t-19 99v472h109v-467q0 -71 39.5 -112.5t106.5 -41.5q68 0 108 41.5t40 112.5v467h108v-472v0z" />
    <glyph glyph-name="V" unicode="V" horiz-adv-x="564" 
d="M324 0h-84l-235 712h113l164 -518l163 518h114z" />
    <glyph glyph-name="W" unicode="W" horiz-adv-x="871" 
d="M673 0h-94l-144 499l-144 -499h-94l-186 712h114l124 -510l143 510h86l144 -510l124 510h114z" />
    <glyph glyph-name="X" unicode="X" horiz-adv-x="578" 
d="M443 0l-155 273l-155 -273h-123l219 365l-205 347h124l140 -255l141 255h124l-206 -347l221 -365h-125z" />
    <glyph glyph-name="Y" unicode="Y" horiz-adv-x="544" 
d="M326 293v-293h-108v293l-213 419h118l150 -313l148 313h117z" />
    <glyph glyph-name="Z" unicode="Z" horiz-adv-x="552" 
d="M48 0v93l330 522h-316v97h442v-88l-332 -527h332v-97h-456z" />
    <glyph glyph-name="bracketleft" unicode="[" horiz-adv-x="346" 
d="M86 -74v860h218v-91h-116v-678h116v-91h-218z" />
    <glyph glyph-name="backslash" unicode="\" horiz-adv-x="380" 
d="M282 -74l-282 852h97l283 -852h-98z" />
    <glyph glyph-name="bracketright" unicode="]" horiz-adv-x="346" 
d="M43 -74v90h118v680h-118v90h218v-860h-218z" />
    <glyph glyph-name="asciicircum" unicode="^" 
d="M379 401l-112 207l-112 -207h-106l172 318h93l171 -318h-106z" />
    <glyph glyph-name="underscore" unicode="_" horiz-adv-x="600" 
d="M0 -172v70h600v-70h-600z" />
    <glyph glyph-name="grave" unicode="`" horiz-adv-x="500" 
d="M225 599l-111 162h112l76 -162h-77z" />
    <glyph glyph-name="a" unicode="a" horiz-adv-x="530" 
d="M354 0v46q-16 -16 -30.5 -26t-30 -15.5t-33.5 -7.5t-41 -2q-85 0 -130.5 39.5t-45.5 113.5q0 69 46.5 108t127.5 39h136v37q0 50 -27 72t-87 22q-42 0 -68 -13q-11 -5 -20.5 -13.5t-20.5 -22.5l-67 63q21 23 34 34t32 19q41 20 113 20q212 0 212 -174v-339h-100zM353 223
h-120q-91 0 -91 -72q0 -37 24 -54.5t76 -17.5q60 0 85.5 24t25.5 80v40z" />
    <glyph glyph-name="b" unicode="b" horiz-adv-x="553" 
d="M495 252q0 -83 -13 -132.5t-43 -79.5q-46 -46 -126 -46q-23 0 -41 3t-33 10.5t-29 19t-29 27.5v-54h-100v712h102v-256q28 31 57.5 44t71.5 13q80 0 127 -45q20 -20 31.5 -46t17 -55t6.5 -58.5t1 -56.5zM394 254q0 91 -24.5 129.5t-81.5 38.5q-62 0 -86 -49
q-10 -20 -14.5 -49.5t-4.5 -73.5q0 -88 24.5 -126.5t81.5 -38.5t81 39t24 130z" />
    <glyph glyph-name="c" unicode="c" horiz-adv-x="485" 
d="M448 66q-24 -24 -39.5 -35t-35.5 -20q-38 -17 -91 -17q-108 0 -167.5 68.5t-59.5 193.5q0 121 60 189t167 68q51 0 91 -17q20 -9 35.5 -20t39.5 -35l-69 -67q-23 23 -43.5 35.5t-54.5 12.5q-62 0 -93 -42.5t-31 -125.5q0 -169 124 -169q17 0 30 3.5t24.5 9.5t21.5 15
t22 21l69 -68v0z" />
    <glyph glyph-name="d" unicode="d" horiz-adv-x="553" 
d="M372 0v54q-29 -33 -58 -46.5t-74 -13.5q-39 0 -71.5 11t-55.5 34q-19 19 -30 45.5t-17 55.5t-7.5 59t-1.5 55v15q0 75 13.5 122t42.5 76q46 46 127 46q44 0 72.5 -12.5t57.5 -44.5v256h102v-712h-100zM370 253q0 91 -24.5 130t-81.5 39q-62 0 -86 -49
q-10 -20 -14.5 -49.5t-4.5 -73.5q0 -88 24.5 -126.5t81.5 -38.5q56 0 80.5 39t24.5 129z" />
    <glyph glyph-name="e" unicode="e" horiz-adv-x="539" 
d="M156 223q1 -32 8.5 -58t23 -45t40.5 -29t61 -10q38 0 65 13.5t54 39.5l64 -61q-43 -42 -84.5 -60.5t-102.5 -18.5q-115 0 -172.5 66t-57.5 196q0 60 15 107.5t42.5 80.5t67.5 51t90 18q49 0 88.5 -17t67.5 -49t43 -77t15 -101v-46h-328zM384 295q-2 26 -8.5 50
t-19.5 42.5t-34 29.5t-52 11t-52 -11t-34.5 -29.5t-20 -42.5t-7.5 -50h228v0z" />
    <glyph glyph-name="f" unicode="f" horiz-adv-x="328" 
d="M199 420v-420h-102v420h-58v78h58v78q0 65 38 103t101 38h63v-87h-45q-55 0 -55 -59v-73h100v-78h-100z" />
    <glyph glyph-name="g" unicode="g" horiz-adv-x="549" 
d="M468 2q0 -49 -15.5 -88.5t-45 -67t-70.5 -42.5t-92 -15q-28 0 -51 3.5t-43 12t-39 21t-40 30.5l65 64q26 -23 49.5 -33.5t58.5 -10.5q57 0 89 33.5t32 95.5v65q-27 -31 -56.5 -44.5t-71.5 -13.5q-80 0 -125 45q-19 20 -30 44.5t-17 52t-7.5 55.5t-1.5 54v16
q0 71 13.5 115t42.5 73q46 46 126 46q43 0 72 -14t58 -45v53h99v-505v0zM366 262q0 86 -24 123t-80 37q-55 0 -79 -37t-24 -122t24 -122t80 -37q54 0 78.5 36.5t24.5 121.5z" />
    <glyph glyph-name="h" unicode="h" horiz-adv-x="566" 
d="M388 0v311q0 53 -26.5 82t-75.5 29q-48 0 -75.5 -29.5t-27.5 -81.5v-311h-102v712h102v-256q29 29 60.5 43t72.5 14q80 0 127 -50t47 -136v-327h-102z" />
    <glyph glyph-name="i" unicode="i" horiz-adv-x="264" 
d="M198 674q0 -29 -19 -48.5t-47 -19.5q-27 0 -46.5 19.5t-19.5 46.5q0 28 19.5 47t46.5 19t46.5 -19t19.5 -45zM81 0v507h102v-507h-102z" />
    <glyph glyph-name="j" unicode="j" horiz-adv-x="264" 
d="M198 674q0 -29 -19 -48.5t-47 -19.5q-27 0 -46.5 19.5t-19.5 46.5q0 28 19.5 47t46.5 19t46.5 -19t19.5 -45zM183 -67q0 -65 -37 -103t-102 -38h-63v88h45q29 0 42 13.5t13 45.5v568h102v-574v0z" />
    <glyph glyph-name="k" unicode="k" horiz-adv-x="548" 
d="M400 0l-142 234l-75 -85v-149h-102v712h102v-439l197 234h124l-176 -199l198 -308h-126z" />
    <glyph glyph-name="l" unicode="l" horiz-adv-x="264" 
d="M81 0v712h102v-712h-102z" />
    <glyph glyph-name="m" unicode="m" horiz-adv-x="877" 
d="M700 0v309q0 54 -27 83.5t-76 29.5q-48 0 -76.5 -29t-28.5 -78v-315h-101v309q0 54 -27.5 83.5t-75.5 29.5q-50 0 -77.5 -29.5t-27.5 -83.5v-309h-102v507h101v-51q29 28 61 42.5t74 14.5q48 0 82 -18t61 -56q34 38 70 56t88 18q85 0 134.5 -51t49.5 -138v-324h-102z" />
    <glyph glyph-name="n" unicode="n" horiz-adv-x="568" 
d="M390 0v309q0 54 -27 83.5t-76 29.5t-76.5 -29.5t-27.5 -83.5v-309h-102v507h101v-51q29 29 61 43t73 14q82 0 129 -50.5t47 -138.5v-324h-102z" />
    <glyph glyph-name="o" unicode="o" horiz-adv-x="537" 
d="M479 256q0 -38 -3 -68t-10 -54t-18.5 -43.5t-27.5 -36.5q-58 -60 -152 -60q-93 0 -151 60q-32 34 -46 79.5t-14 120.5q0 74 14 119.5t46 79.5q58 60 151 60q94 0 152 -60q32 -33 45.5 -78.5t13.5 -118.5zM378 252q0 48 -6 81.5t-26 55.5q-14 15 -33 24t-45 9t-45 -9
t-33 -25q-19 -23 -25 -58t-6 -80q0 -51 8 -82t25 -51q27 -32 76 -32q26 0 45.5 9t33.5 25q18 22 24.5 55t6.5 78z" />
    <glyph glyph-name="p" unicode="p" horiz-adv-x="553" 
d="M495 252q0 -83 -13 -132.5t-43 -79.5q-46 -46 -126 -46q-44 0 -72.5 13t-57.5 45v-257h-102v712h100v-53q15 16 29 27t29 18t32.5 10.5t40.5 3.5q68 0 112.5 -32.5t59.5 -98.5q6 -27 8.5 -56t2.5 -74zM394 254q0 91 -24.5 129.5t-81.5 38.5q-62 0 -86 -49
q-10 -20 -14.5 -49.5t-4.5 -73.5q0 -88 24.5 -126.5t81.5 -38.5t81 39t24 130z" />
    <glyph glyph-name="q" unicode="q" horiz-adv-x="553" 
d="M370 -205v257q-28 -32 -58 -45t-72 -13q-82 0 -127 45q-19 19 -30 45.5t-17 55.5t-7.5 59t-1.5 55v16q0 75 13.5 121.5t42.5 75.5q23 23 55.5 34.5t71.5 11.5q45 0 74 -13.5t58 -45.5v53h100v-712h-102zM370 253q0 91 -24.5 130t-81.5 39q-62 0 -86 -49
q-10 -20 -14.5 -49.5t-4.5 -73.5q0 -88 24.5 -126.5t81.5 -38.5q56 0 80.5 39t24.5 129z" />
    <glyph glyph-name="r" unicode="r" horiz-adv-x="438" 
d="M360 388q-20 20 -35.5 27t-38.5 7q-47 0 -75 -31.5t-28 -82.5v-308h-102v507h101v-55q27 32 61 46.5t76 14.5q39 0 64.5 -11t53.5 -37z" />
    <glyph glyph-name="s" unicode="s" horiz-adv-x="499" 
d="M455 155q0 -77 -57.5 -119t-164.5 -42q-71 0 -124 22q-10 4 -19 8.5t-17.5 10t-18 13.5t-22.5 19l67 67q34 -29 66.5 -41t78.5 -12q54 0 83 18.5t29 52.5q0 53 -68 59l-82 7q-149 12 -149 138q0 73 53 115t146 42q31 0 61 -5t55 -15q19 -7 31.5 -14t32.5 -23l-64 -65
q-28 22 -57.5 29.5t-64.5 7.5q-46 0 -70.5 -17t-24.5 -49q0 -51 70 -57l80 -7q150 -14 150 -143z" />
    <glyph glyph-name="t" unicode="t" horiz-adv-x="342" 
d="M232 0q-63 0 -101 38t-38 103v279h-58v78h58v154h102v-154h98v-78h-98v-274q0 -59 56 -59h42v-87h-61z" />
    <glyph glyph-name="u" unicode="u" horiz-adv-x="568" 
d="M387 0v51q-32 -30 -62 -43.5t-75 -13.5q-81 0 -127.5 50.5t-46.5 138.5v324h102v-309q0 -54 26.5 -83.5t75.5 -29.5t77 29.5t28 83.5v309h101v-507h-99z" />
    <glyph glyph-name="v" unicode="v" horiz-adv-x="471" 
d="M277 0h-83l-187 507h109l119 -358l120 358h108z" />
    <glyph glyph-name="w" unicode="w" horiz-adv-x="742" 
d="M578 0h-88l-119 354l-118 -354h-88l-158 507h109l98 -358l118 358h78l119 -358l97 358h109z" />
    <glyph glyph-name="x" unicode="x" horiz-adv-x="503" 
d="M359 0l-107 173l-107 -173h-123l174 259l-167 248h123l100 -165l100 165h122l-167 -248l174 -259h-122z" />
    <glyph glyph-name="y" unicode="y" horiz-adv-x="471" 
d="M240 -101q-19 -52 -52.5 -76t-88.5 -24h-41v92h26q16 0 27 2t19.5 8t14.5 16.5t12 26.5l28 80l-178 483h109l121 -358l118 358h109z" />
    <glyph glyph-name="z" unicode="z" horiz-adv-x="469" 
d="M43 0v81l252 335h-238v91h364v-81l-254 -335h254v-91h-378z" />
    <glyph glyph-name="braceleft" unicode="{" horiz-adv-x="407" 
d="M291 -74q-74 0 -108.5 33.5t-34.5 105.5v167q0 79 -66 79h-37v90h37q66 0 66 79v167q0 139 143 139h70v-91h-38q-23 0 -37 -3t-22 -11.5t-11 -24t-3 -39.5v-161q0 -39 -15 -61t-51 -39q36 -17 51 -39t15 -61v-161q0 -24 3 -39.5t11 -24t22 -11.5t37 -3h38v-91h-70z" />
    <glyph glyph-name="bar" unicode="|" horiz-adv-x="338" 
d="M118 -74v860h102v-860h-102z" />
    <glyph glyph-name="braceright" unicode="}" horiz-adv-x="407" 
d="M325 311q-66 0 -66 -79v-167q0 -139 -143 -139h-71v91h39q23 0 37 3t22 12t11 24t3 39v161q0 39 15 61t51 39q-36 17 -51 39t-15 61v161q0 24 -3 39t-11 24t-22 12t-37 3h-39v91h71q73 0 108 -33.5t35 -105.5v-167q0 -79 66 -79h36v-90h-36z" />
    <glyph glyph-name="asciitilde" unicode="~" 
d="M511 280q-16 -16 -27.5 -26.5t-21.5 -17.5t-19 -12.5t-20 -10.5q-25 -11 -58 -11q-26 0 -52 8t-49 19l-20 9q-23 11 -39.5 16t-34.5 5q-12 0 -21 -2t-18.5 -7t-20 -13.5t-24.5 -21.5l-63 64q27 27 42.5 39t32.5 21q33 18 70 18q32 0 58 -9.5t55 -23.5l8 -4l8 -4
q20 -9 34.5 -12.5t30.5 -3.5q23 0 40 9t44 35l65 -64v0z" />
    <glyph glyph-name="dagger" unicode="&#x2020;" horiz-adv-x="592" 
d="M346 427v-427h-102v427h-179v91h179v194h102v-194h180v-91h-180z" />
    <glyph glyph-name="degree" unicode="&#xb0;" horiz-adv-x="471" 
d="M410 552q0 -37 -13.5 -69.5t-37 -56.5t-55 -37.5t-68.5 -13.5q-36 0 -68 13.5t-56 37.5t-37.5 55.5t-13.5 67.5t13.5 68t37.5 56t56 37.5t68 13.5q35 0 66.5 -13.5t55.5 -37t38 -55t14 -66.5zM326 547q0 41 -26 68t-65 27t-65 -26.5t-26 -66.5q0 -39 26.5 -65.5
t65.5 -26.5q37 0 63.5 26t26.5 64z" />
    <glyph glyph-name="sterling" unicode="&#xa3;" 
d="M85 0v313h-62v78h62v96q0 52 17.5 94.5t49 73t75.5 47t98 16.5t93.5 -16.5t77.5 -52.5l-73 -71q-25 25 -46.5 34t-53.5 9q-62 0 -95.5 -36.5t-33.5 -105.5v-88h129v-78h-129v-216h302v-97h-411z" />
    <glyph glyph-name="section" unicode="&#xa7;" horiz-adv-x="544" 
d="M472 268q0 -57 -26 -94t-71 -66q44 -23 66.5 -56t22.5 -85q0 -39 -14.5 -72t-40 -56.5t-61 -36.5t-78.5 -13t-80 13t-63 39t-36.5 54.5t-12.5 63.5h100q9 -79 94 -79q42 0 67 22t25 60q0 32 -20.5 55.5t-58.5 34.5l-70 21q-141 42 -141 181q0 57 25.5 95t71.5 66
q-41 22 -62.5 53t-21.5 79q0 39 13.5 70.5t38 54t59 34.5t76.5 12q44 0 79.5 -12.5t60.5 -37.5t34.5 -52.5t11.5 -62.5h-97q-5 41 -26 59t-65 18q-41 0 -64 -20.5t-23 -57.5q0 -59 75 -81l70 -21q70 -21 106 -67.5t36 -114.5zM372 260q0 51 -26.5 80t-72.5 29
q-45 0 -72.5 -29t-27.5 -78q0 -50 27 -79t73 -29q45 0 72 29t27 77z" />
    <glyph glyph-name="bullet" unicode="&#x2022;" horiz-adv-x="512" 
d="M419 337q0 -35 -12.5 -65t-34.5 -52.5t-52 -35.5t-64 -13t-63.5 13t-51.5 35t-35 51.5t-13 63.5t13 63.5t35 51.5t51.5 35t63.5 13q33 0 62.5 -13t52 -34.5t35.5 -50.5t13 -62z" />
    <glyph glyph-name="paragraph" unicode="&#xb6;" horiz-adv-x="636" 
d="M442 -205v820h-108v-820h-102v522q-41 2 -76.5 17t-61.5 40.5t-41 61t-15 79.5q0 45 16 81t45.5 62t71 40t92.5 14h281v-917h-102z" />
    <glyph glyph-name="registered" unicode="&#xae;" horiz-adv-x="428" 
d="M402 533q0 -40 -14.5 -75t-40 -60.5t-59.5 -40.5t-74 -15q-39 0 -73 15t-59.5 40.5t-40.5 59.5t-15 73t15 73.5t40.5 60t59.5 40t73 14.5q38 0 72.5 -15t60 -40t40.5 -58.5t15 -71.5zM365 527q0 33 -11.5 62t-31.5 50t-48 33t-60 12q-31 0 -59 -12t-48 -33t-32 -49
t-12 -60t12 -60t32 -48.5t48 -32.5t59 -12t58.5 12t48 32.5t32.5 47.5t12 58zM254 429l-41 81h-27v-81h-37v203h76q29 0 47.5 -18t18.5 -45q0 -19 -11.5 -33.5t-28.5 -20.5l45 -86h-42zM254 570q0 13 -9.5 21.5t-23.5 8.5h-35v-61h35q14 0 23.5 8.5t9.5 22.5z" />
    <glyph glyph-name="copyright" unicode="&#xa9;" horiz-adv-x="862" 
d="M793 363q0 -78 -28 -145t-77 -117t-115 -78.5t-142 -28.5q-75 0 -141 28.5t-115 77.5t-77.5 115t-28.5 141t28.5 141t77.5 115t115 77.5t141 28.5q74 0 139.5 -28.5t115 -77t78.5 -113t29 -136.5zM720 350q0 64 -22 119t-61 95t-91.5 63t-114.5 23q-61 0 -113.5 -22.5
t-91.5 -62.5t-61.5 -93.5t-22.5 -115.5t22.5 -115.5t61.5 -93.5t91.5 -62.5t113.5 -22.5q59 0 111.5 23t92 62t62.5 91.5t23 111.5zM568 209q-18 -16 -32 -25.5t-31 -15.5q-15 -6 -31.5 -8.5t-35.5 -2.5q-84 0 -132 53t-48 146q0 46 12.5 83t36 63t56.5 40t74 14
q35 0 65 -11q17 -6 31.5 -15.5t34.5 -26.5l-46 -46q-25 21 -42.5 28.5t-42.5 7.5q-53 0 -80.5 -35.5t-27.5 -104.5q0 -64 28.5 -98.5t80.5 -34.5q25 0 42.5 7.5t41.5 27.5l46 -46v0z" />
    <glyph glyph-name="trademark" unicode="&#x2122;" horiz-adv-x="883" 
d="M745 285v279l-91 -179h-70l-91 179v-279h-77v427h77l126 -243l126 243h77v-427h-77zM232 643v-358h-77v358h-114v69h305v-69h-114z" />
    <glyph glyph-name="notequal" unicode="&#x2260;" 
d="M212 133l-89 -114l-67 46l55 68h-60v95h125l81 99h-206v95h270l90 115l67 -46l-56 -69h59v-95h-124l-81 -99h205v-95h-269z" />
    <glyph glyph-name="infinity" unicode="&#x221e;" horiz-adv-x="830" 
d="M769 276q0 -39 -12.5 -71t-35.5 -55t-55 -35.5t-71 -12.5q-30 0 -55 7t-46 20t-40 31.5t-39 40.5q-37 -43 -79 -71.5t-101 -28.5q-39 0 -71 12.5t-55 36t-35.5 55.5t-12.5 71t12.5 71t35.5 55.5t55 36t70 12.5q30 0 55 -7.5t46.5 -21t41 -32t38.5 -39.5q19 21 38 39.5
t40.5 32t46.5 21t55 7.5q39 0 71 -12.5t55 -36t35.5 -55.5t12.5 -71zM670 274q0 34 -21 56t-55 22q-18 0 -34 -7.5t-30 -19t-25.5 -25t-22.5 -26.5q29 -35 54.5 -57t57.5 -22q34 0 55 22t21 57zM347 274q-29 35 -54 57t-57 22q-34 0 -55.5 -22t-21.5 -57t21.5 -57t55.5 -22
q32 0 57 22t54 57z" />
    <glyph glyph-name="plusminus" unicode="&#xb1;" 
d="M315 316v-169h-96v169h-168v94h168v168h96v-168h167v-94h-167zM51 0v95h431v-95h-431z" />
    <glyph glyph-name="lessequal" unicode="&#x2264;" 
d="M36 299v96l461 156v-100l-330 -104l330 -108v-100zM36 -12v95h461v-95h-461z" />
    <glyph glyph-name="greaterequal" unicode="&#x2265;" 
d="M36 139v100l329 108l-329 104v100l461 -156v-96zM36 -12v95h461v-95h-461z" />
    <glyph glyph-name="mu" unicode="&#xb5;" horiz-adv-x="569" 
d="M387 0v51q-28 -28 -60 -42.5t-73 -14.5q-25 0 -40.5 5t-35.5 20v-224h-102v712h102v-309q0 -54 27 -83.5t76 -29.5t77 29.5t28 83.5v309h101v-507h-100z" />
    <glyph glyph-name="mu" unicode="&#x3bc;" horiz-adv-x="569" 
d="M387 0v51q-28 -28 -60 -42.5t-73 -14.5q-25 0 -40.5 5t-35.5 20v-224h-102v712h102v-309q0 -54 27 -83.5t76 -29.5t77 29.5t28 83.5v309h101v-507h-100z" />
    <glyph glyph-name="logicalnot" unicode="&#xac;" 
d="M390 98v141h-342v95h436v-236h-94z" />
    <glyph glyph-name="radical" unicode="&#x221a;" horiz-adv-x="579" 
d="M459 615l-202 -615h-84l-168 507h111l99 -313l163 518h171v-97h-90z" />
    <glyph glyph-name="florin" unicode="&#x192;" horiz-adv-x="415" 
d="M326 630q-56 0 -67 -59l-31 -180h100v-78h-114l-91 -518h-102l92 518h-82v78h95l33 185q11 65 55 103t108 38h63v-87h-59z" />
    <glyph glyph-name="approxequal" unicode="&#x2248;" 
d="M511 380q-16 -15 -27.5 -25.5t-21.5 -18t-19 -12.5t-20 -10q-12 -6 -27 -8.5t-31 -2.5q-19 0 -35.5 3.5t-44.5 14.5q-14 5 -23 9l-27 12q-21 10 -35 13.5t-30 3.5q-23 0 -40 -8.5t-44 -34.5l-63 63q28 27 43.5 39t32.5 22q32 17 70 17q26 0 49.5 -8t62.5 -25q2 -1 8 -3.5
t8 -3.5q20 -9 34 -13t31 -4q23 0 40 9t44 35l65 -64v0zM511 178q-28 -27 -43.5 -39t-32.5 -21q-31 -18 -70 -18q-18 0 -36 5.5t-43 13.5q-8 3 -18 6.5t-24 10.5q-24 12 -39.5 16.5t-33.5 4.5q-22 0 -39 -9t-45 -35l-64 64q16 15 27.5 25.5t21.5 18t19 12.5t20 10
q12 6 27 8.5t31 2.5q18 0 37 -4.5t42 -13.5q8 -3 18 -7t24 -11q23 -11 39 -15.5t34 -4.5q12 0 21 2t18.5 7t20 13.5t24.5 21.5l64 -64v0z" />
    <glyph glyph-name="Delta" unicode="&#x394;" horiz-adv-x="619" 
d="M5 0l261 712h87l260 -712h-608zM311 551l-163 -459h324z" />
    <glyph glyph-name="Delta" unicode="&#x2206;" horiz-adv-x="619" 
d="M5 0l261 712h87l260 -712h-608zM311 551l-163 -459h324z" />
    <glyph glyph-name="guillemotleft" unicode="&#xab;" horiz-adv-x="592" 
d="M290 272l230 229v-123l-108 -106l108 -107v-123zM37 272l230 229v-123l-107 -106l107 -107v-123z" />
    <glyph glyph-name="guillemotright" unicode="&#xbb;" horiz-adv-x="592" 
d="M325 42v123l107 107l-107 106v123l231 -229zM72 42v123l108 107l-108 106v123l230 -229z" />
    <glyph glyph-name="ellipsis" unicode="&#x2026;" horiz-adv-x="803" 
d="M733 71q0 -31 -21 -52.5t-51 -21.5t-51.5 21.5t-21.5 50.5q0 30 21.5 51.5t51.5 21.5q29 0 50.5 -21t21.5 -50zM474 71q0 -31 -21.5 -52.5t-51.5 -21.5t-51 21.5t-21 50.5q0 30 21 51.5t51 21.5q15 0 28 -5.5t23 -15.5t16 -23t6 -27zM215 70q0 -30 -21.5 -51.5
t-51.5 -21.5t-51.5 21.5t-21.5 50.5q0 30 21.5 51.5t51.5 21.5q14 0 27.5 -6t23.5 -15.5t16 -22.5t6 -28z" />
    <glyph glyph-name="nonbreakingspace" unicode="&#xa0;" horiz-adv-x="240" 
 />
    <glyph glyph-name="endash" unicode="&#x2013;" horiz-adv-x="500" 
d="M0 230v95h500v-95h-500z" />
    <glyph glyph-name="emdash" unicode="&#x2014;" horiz-adv-x="1000" 
d="M0 230v95h1000v-95h-1000z" />
    <glyph glyph-name="quotedblleft" unicode="&#x201c;" horiz-adv-x="459" 
d="M355 562h-109l68 214h87zM164 562h-109l69 214h87z" />
    <glyph glyph-name="quotedblright" unicode="&#x201d;" horiz-adv-x="459" 
d="M332 562h-86l46 214h109zM142 562h-87l46 214h110z" />
    <glyph glyph-name="quoteleft" unicode="&#x2018;" horiz-adv-x="268" 
d="M163 562h-109l68 214h87z" />
    <glyph glyph-name="quoteright" unicode="&#x2019;" horiz-adv-x="268" 
d="M141 562h-87l46 214h110z" />
    <glyph glyph-name="divide" unicode="&#xf7;" 
d="M339 472q0 -31 -21 -52t-51 -21t-51.5 21t-21.5 51t21.5 51.5t51.5 21.5q14 0 27 -6t23 -15.5t16 -22.5t6 -28zM48 230v95h436v-95h-436zM339 86q0 -31 -21.5 -53t-50.5 -22q-30 0 -51.5 22t-21.5 51q0 30 21.5 51.5t51.5 21.5q29 0 50.5 -21t21.5 -50z" />
    <glyph glyph-name="quotedblbase" unicode="&#x201e;" horiz-adv-x="459" 
d="M332 -104h-86l46 214h109zM142 -104h-87l46 214h110z" />
    <glyph glyph-name="currency" unicode="&#xa4;" 
d="M502 63q-38 -36 -78 -52.5t-93 -16.5q-54 0 -98 16.5t-75.5 46.5t-49 73t-17.5 95v56h-61v60h61v46h-61v60h61v40q0 52 17.5 94.5t49 73t75.5 47t98 16.5q51 0 91 -16t72 -45l-65 -78q-20 17 -41 29t-48 12q-69 0 -104.5 -34t-35.5 -107v-32h183l-17 -60h-166v-46h153
l-17 -60h-136v-48q0 -66 31.5 -104t97.5 -38q32 0 53.5 9.5t46.5 33.5l73 -71v0z" />
    <glyph glyph-name="quotesinglbase" unicode="&#x201a;" horiz-adv-x="268" 
d="M142 -104h-87l46 214h110z" />
    <glyph glyph-name="daggerdbl" unicode="&#x2021;" horiz-adv-x="592" 
d="M346 -11v-194h-102v194h-179v91h179v347h-179v91h179v194h102v-194h180v-91h-180v-347h180v-91h-180z" />
    <glyph glyph-name="perthousand" unicode="&#x2030;" horiz-adv-x="1195" 
d="M1137 130q0 -61 -38.5 -98.5t-101.5 -37.5t-101.5 37t-38.5 99v101q0 61 38.5 98.5t101.5 37.5t101.5 -37.5t38.5 -98.5v-101v0zM783 130q0 -61 -38.5 -98.5t-101.5 -37.5t-101.5 37t-38.5 99v101q0 61 38.5 98.5t101.5 37.5t101.5 -37.5t38.5 -98.5v-101v0zM294 0h-82
l336 712h81zM339 481q0 -61 -39 -98.5t-102 -37.5t-101.5 37t-38.5 99v101q0 61 38.5 98.5t101.5 37.5t102 -37.5t39 -98.5v-101v0zM1061 228q0 72 -64 72t-64 -72v-95q0 -72 64 -72t64 71v96zM707 228q0 72 -64 72t-64 -72v-95q0 -72 64 -72t64 72v95zM263 579q0 72 -65 72
q-64 0 -64 -72v-95q0 -72 65 -72q64 0 64 72v95z" />
    <glyph glyph-name="guilsinglleft" unicode="&#x2039;" horiz-adv-x="339" 
d="M37 272l230 229v-123l-107 -106l107 -107v-123z" />
    <glyph glyph-name="guilsinglright" unicode="&#x203a;" horiz-adv-x="339" 
d="M72 42v123l108 107l-108 106v123l230 -229z" />
    <glyph glyph-name="periodcentered" unicode="&#xb7;" horiz-adv-x="284" 
d="M215 277q0 -31 -21.5 -52.5t-51.5 -21.5t-51.5 21.5t-21.5 51.5q0 29 21.5 50.5t51.5 21.5q15 0 28 -5.5t23 -15.5t16 -23t6 -27z" />
    <glyph glyph-name="periodcentered" unicode="&#x2219;" horiz-adv-x="284" 
d="M215 277q0 -31 -21.5 -52.5t-51.5 -21.5t-51.5 21.5t-21.5 51.5q0 29 21.5 50.5t51.5 21.5q15 0 28 -5.5t23 -15.5t16 -23t6 -27z" />
    <glyph glyph-name="numbersign" unicode="#" horiz-adv-x="673" 
d="M531 426l-20 -124h79v-94h-94l-33 -208h-106l33 208h-137l-33 -208h-106l33 208h-79v94h95l19 124h-81v94h95l31 196h107l-31 -196h136l31 196h106l-31 -196h78v-94h-92zM288 426l-20 -124h137l19 124h-136z" />
    <glyph glyph-name="exclam" unicode="!" horiz-adv-x="332" 
d="M222 212h-78l-22 500h123zM248 62q0 -27 -19 -46t-46 -19q-26 0 -45.5 19t-19.5 45q0 27 19.5 46t45.5 19t45.5 -19t19.5 -45z" />
    <glyph glyph-name="quotedbl" unicode="&#x22;" horiz-adv-x="444" 
d="M265 521v191h101v-191h-101zM78 521v191h101v-191h-101z" />
    <glyph glyph-name="afii10017" unicode="&#x410;" horiz-adv-x="625" 
d="M503 0l-50 143h-281l-50 -143h-114l261 712h87l260 -712h-113zM315 551l-112 -316h221z" />
    <glyph glyph-name="afii10018" unicode="&#x411;" horiz-adv-x="655" 
d="M595 216q0 -48 -15.5 -87.5t-45 -68t-71 -44.5t-93.5 -16h-277v712h458v-97h-350v-183h169q52 0 93.5 -15.5t71 -44t45 -68.5t15.5 -88zM487 216q0 55 -32.5 87t-91.5 32h-162v-238h162q59 0 91.5 31.5t32.5 87.5z" />
    <glyph glyph-name="afii10019" unicode="&#x412;" horiz-adv-x="663" 
d="M596 200q0 -93 -57.5 -146.5t-157.5 -53.5h-288v712h277q49 0 88.5 -13.5t67.5 -39t43.5 -60.5t15.5 -79q0 -108 -96 -155q53 -25 80 -64.5t27 -100.5zM477 513q0 48 -31 75t-85 27h-160v-204h160q54 0 85 27t31 75zM487 206q0 50 -31.5 79t-85.5 29h-169v-217h169
q54 0 85.5 29t31.5 80z" />
    <glyph glyph-name="afii10020" unicode="&#x413;" horiz-adv-x="565" 
d="M206 615v-615h-108v712h438v-97h-330z" />
    <glyph glyph-name="afii10021" unicode="&#x414;" horiz-adv-x="706" 
d="M566 -170v170h-432v-170h-105v267h71q23 56 39 111t26 121t14.5 148t4.5 192v43h404v-615h84v-267h-106zM480 615h-192v-35q0 -92 -5 -160.5t-14.5 -123.5t-24 -102t-33.5 -97h269v518z" />
    <glyph glyph-name="afii10022" unicode="&#x415;" horiz-adv-x="603" 
d="M93 0v712h456v-97h-348v-208h296v-96h-296v-214h348v-97h-456z" />
    <glyph glyph-name="afii10024" unicode="&#x416;" horiz-adv-x="943" 
d="M806 0l-185 339l-96 -126v-213h-108v213l-96 126l-184 -339h-127l240 425l-215 287h130l252 -356v356h108v-356l252 356h130l-215 -287l241 -425h-127z" />
    <glyph glyph-name="afii10025" unicode="&#x417;" horiz-adv-x="589" 
d="M521 201q0 -47 -18.5 -85.5t-51 -65.5t-76.5 -41.5t-95 -14.5q-77 0 -136.5 19.5t-115.5 74.5l71 72q41 -38 82.5 -53.5t96.5 -15.5q28 0 52.5 7.5t42.5 22t28.5 35.5t10.5 48q0 57 -33.5 86t-92.5 29h-85v90h87q54 0 84 28.5t30 80.5q0 51 -35 78t-88 27
q-47 0 -85.5 -12.5t-73.5 -43.5l-67 69q51 45 106.5 63.5t123.5 18.5q48 0 89.5 -13.5t72 -38.5t48 -61t17.5 -80q0 -55 -25 -94.5t-73 -62.5q52 -21 80.5 -62.5t28.5 -104.5z" />
    <glyph glyph-name="afii10026" unicode="&#x418;" horiz-adv-x="711" 
d="M510 0v517l-319 -517h-98v712h108v-516l318 516h99v-712h-108z" />
    <glyph glyph-name="afii10027" unicode="&#x419;" horiz-adv-x="711" 
d="M517 893q-9 -68 -49 -104t-112 -36t-111.5 36t-49.5 104h73q7 -29 28 -47t61 -18q41 0 61 18t26 47h73v0zM510 0v517l-319 -517h-98v712h108v-516l318 516h99v-712h-108z" />
    <glyph glyph-name="afii10028" unicode="&#x41a;" horiz-adv-x="658" 
d="M521 0l-200 351l-120 -144v-207h-108v712h108v-358l290 358h133l-231 -279l255 -433h-127z" />
    <glyph glyph-name="afii10029" unicode="&#x41b;" horiz-adv-x="691" 
d="M489 0v615h-198l-10 -308q-5 -163 -57.5 -235t-154.5 -72h-54v97h25q29 0 52.5 9t40.5 33.5t27.5 68.5t12.5 113l11 391h413v-712h-108z" />
    <glyph glyph-name="afii10030" unicode="&#x41c;" horiz-adv-x="813" 
d="M612 0v476l-164 -347h-80l-167 347v-476h-108v712h107l208 -443l205 443h108v-712h-109z" />
    <glyph glyph-name="afii10031" unicode="&#x41d;" horiz-adv-x="690" 
d="M489 0v311h-288v-311h-108v712h108v-305h288v305h109v-712h-109z" />
    <glyph glyph-name="afii10032" unicode="&#x41e;" horiz-adv-x="647" 
d="M580 356q0 -46 -1 -86t-7.5 -75.5t-20.5 -66.5t-40 -58q-74 -76 -188 -76q-113 0 -187 76q-26 27 -40 58.5t-20.5 67.5t-7.5 75t-1 80v38q0 44 2.5 80.5t9.5 67.5t21 57t36 48q37 37 84.5 56.5t102.5 19.5q56 0 103.5 -19.5t84.5 -56.5q42 -42 55.5 -101t13.5 -135v-50v0
zM471 363q0 81 -6 132t-36 82q-42 44 -106 44q-30 0 -57.5 -11t-48.5 -33q-16 -16 -24 -38.5t-12 -49.5t-4.5 -59t-0.5 -69v-67t3.5 -62.5t12 -54.5t25.5 -42q44 -44 106 -44q65 0 106 44q16 17 24.5 37.5t12.5 47.5t4.5 62.5t0.5 80.5z" />
    <glyph glyph-name="afii10033" unicode="&#x41f;" horiz-adv-x="690" 
d="M489 0v615h-288v-615h-108v712h504v-712h-108z" />
    <glyph glyph-name="afii10034" unicode="&#x420;" horiz-adv-x="629" 
d="M591 496q0 -48 -16.5 -87.5t-46.5 -68t-72 -44.5t-93 -16h-162v-280h-108v712h270q51 0 93 -15.5t72 -44t46.5 -68.5t16.5 -88zM483 496q0 56 -34 87.5t-93 31.5h-155v-238h155q59 0 93 32t34 87z" />
    <glyph glyph-name="afii10035" unicode="&#x421;" horiz-adv-x="574" 
d="M522 78q-27 -25 -47 -39t-45 -25q-23 -10 -49 -15t-56 -5q-115 0 -189 76q-27 27 -41 58.5t-20 67.5t-7 76t-1 84q-1 4 -1 15t1 14q0 49 2.5 87t10 68t21 55t35.5 47q37 37 84.5 56.5t103.5 19.5q31 0 57 -5t49 -15q25 -11 45 -25t47 -39l-72 -73q-32 31 -59 45.5
t-67 14.5q-65 0 -106 -43q-15 -16 -23.5 -38.5t-12.5 -49.5t-5 -58t-1 -66v-32q0 -46 2 -78t6.5 -54.5t12.5 -38t21 -29.5q40 -43 106 -43q40 0 67 14.5t59 45.5l72 -73v0z" />
    <glyph glyph-name="afii10036" unicode="&#x422;" horiz-adv-x="560" 
d="M334 615v-615h-108v615h-196v97h500v-97h-196z" />
    <glyph glyph-name="afii10037" unicode="&#x423;" horiz-adv-x="564" 
d="M303 116q-21 -49 -56.5 -82.5t-93.5 -33.5h-74v97h51q32 0 51.5 14t31.5 43l25 58l-231 500h114l170 -381l153 381h114z" />
    <glyph glyph-name="afii10038" unicode="&#x424;" horiz-adv-x="770" 
d="M720 371q0 -66 -18.5 -120t-54.5 -92.5t-88.5 -60t-119.5 -23.5v-80h-108v80q-67 2 -119.5 23.5t-88.5 60t-54.5 92.5t-18.5 120t20 119t56.5 89.5t88.5 57t116 22.5v58h108v-58q64 -2 116 -22.5t88.5 -57t56.5 -89.5t20 -119zM612 367q0 89 -42 141t-131 54v-391
q86 3 129.5 55.5t43.5 140.5zM331 562q-89 -2 -131 -54t-42 -141q0 -88 43 -140.5t130 -55.5v391z" />
    <glyph glyph-name="afii10039" unicode="&#x425;" horiz-adv-x="578" 
d="M443 0l-155 273l-155 -273h-123l219 365l-205 347h124l140 -255l141 255h124l-206 -347l221 -365h-125z" />
    <glyph glyph-name="afii10040" unicode="&#x426;" horiz-adv-x="715" 
d="M576 -170v170h-483v712h108v-615h288v615h108v-615h84v-267h-105z" />
    <glyph glyph-name="afii10041" unicode="&#x427;" horiz-adv-x="647" 
d="M446 0v293q-10 -5 -28.5 -11.5t-42.5 -12.5t-51.5 -10.5t-54.5 -4.5q-41 0 -77.5 13t-63.5 37.5t-42.5 61t-15.5 83.5v263h108v-246q0 -31 9.5 -53t25 -35.5t36.5 -20t44 -6.5q21 0 43.5 4t43.5 10t38 13.5t28 15.5v318h108v-712h-108z" />
    <glyph glyph-name="afii10042" unicode="&#x428;" horiz-adv-x="992" 
d="M93 0v712h108v-615h241v615h109v-615h240v615h109v-712h-807z" />
    <glyph glyph-name="afii10043" unicode="&#x429;" horiz-adv-x="1016" 
d="M877 -170v170h-784v712h108v-615h241v615h109v-615h240v615h109v-615h83v-267h-106z" />
    <glyph glyph-name="afii10044" unicode="&#x42a;" horiz-adv-x="757" 
d="M720 216q0 -48 -16.5 -87.5t-46 -68t-71 -44.5t-91.5 -16h-274v615h-191v97h300v-280h165q51 0 92.5 -15.5t71 -44t45.5 -68.5t16 -88zM612 216q0 55 -34 87t-92 32h-156v-238h156q58 0 92 31.5t34 87.5z" />
    <glyph glyph-name="afii10045" unicode="&#x42b;" horiz-adv-x="879" 
d="M678 0v712h108v-712h-108zM592 216q0 -48 -16.5 -87.5t-46 -68t-71 -44.5t-92.5 -16h-273v712h108v-280h165q51 0 92.5 -15.5t71.5 -44t46 -68.5t16 -88zM483 216q0 55 -33 87t-93 32h-156v-238h156q60 0 93 31.5t33 87.5z" />
    <glyph glyph-name="afii10046" unicode="&#x42c;" horiz-adv-x="629" 
d="M592 216q0 -48 -16.5 -87.5t-46 -68t-71 -44.5t-92.5 -16h-273v712h108v-280h165q51 0 92.5 -15.5t71.5 -44t46 -68.5t16 -88zM483 216q0 55 -33 87t-93 32h-156v-238h156q60 0 93 31.5t33 87.5z" />
    <glyph glyph-name="afii10047" unicode="&#x42d;" horiz-adv-x="574" 
d="M507 324q0 -35 -1.5 -70t-8 -67.5t-20.5 -62t-39 -54.5q-38 -38 -87 -57t-102 -19q-27 0 -51.5 4t-46.5 13q-26 11 -48 26t-51 41l69 71q26 -25 59 -41.5t69 -16.5q66 0 107 43q13 14 21 30t12.5 37t6.5 48t2 62h-232v95h231q-2 52 -7 90.5t-27 68.5q-20 26 -49 41
t-65 15q-42 0 -69.5 -15t-57.5 -44l-69 73q29 26 50.5 40.5t48.5 25.5q46 17 98 17q58 0 104 -18.5t79 -52.5q43 -43 58.5 -105t15.5 -155v-63v0z" />
    <glyph glyph-name="afii10048" unicode="&#x42e;" horiz-adv-x="909" 
d="M842 356q0 -53 -1.5 -94.5t-8 -75.5t-20.5 -62t-39 -54q-74 -76 -187 -76t-187 76q-22 23 -35.5 47.5t-21 54t-10 63.5t-3.5 76h-128v-311h-108v712h108v-304h129q1 41 4 74t10 61.5t20 52.5t35 46q36 38 83.5 57t103.5 19q55 0 102.5 -19t84.5 -57q42 -42 55.5 -97
t13.5 -126v-63v0zM733 379q0 42 -2 73.5t-6.5 54.5t-12.5 40t-20 30q-20 22 -47.5 33t-58.5 11q-32 0 -59 -11t-47 -33q-27 -29 -34.5 -77t-7.5 -130v-40q0 -43 2 -74t6.5 -53.5t13 -38t20.5 -28.5q42 -45 106 -45t106 45q15 15 23 34.5t12 44.5t5 56.5t1 70.5v37z" />
    <glyph glyph-name="afii10049" unicode="&#x42f;" horiz-adv-x="653" 
d="M452 0v280h-142l-137 -280h-129l155 300q-63 21 -100 72.5t-37 123.5q0 48 16.5 88t46.5 68.5t72 44t93 15.5h271v-712h-109zM452 615h-155q-59 0 -93 -31.5t-34 -87.5q0 -55 34 -87t93 -32h155v238z" />
    <glyph glyph-name="afii10050" unicode="&#x490;" horiz-adv-x="565" 
d="M206 615v-615h-108v712h333v170h105v-267h-330z" />
    <glyph glyph-name="afii10055" horiz-adv-x="294" 
d="M93 0v712h108v-712h-108z" />
    <glyph glyph-name="afii10051" unicode="&#x402;" horiz-adv-x="746" 
d="M669 24q0 -52 -14.5 -94.5t-43 -72.5t-72 -46.5t-101.5 -16.5q-46 0 -84 13q-17 6 -32 14.5t-32 22.5l66 78q20 -18 39 -24.5t45 -6.5q56 0 88 35.5t32 104.5v191q0 30 -9.5 50t-24.5 32t-33.5 17t-36.5 5h-155v-326h-108v615h-165v97h499v-97h-226v-193h173
q41 0 76.5 -12t61.5 -35t41.5 -57t15.5 -79v-215v0z" />
    <glyph glyph-name="afii10099" unicode="&#x452;" horiz-adv-x="566" 
d="M490 -47q0 -32 -8.5 -61.5t-27.5 -51.5t-49.5 -35t-74.5 -13h-54v87h36q38 0 57 24t19 56v218q0 54 -25.5 82.5t-73.5 28.5t-77 -29.5t-29 -81.5v-177h-102v438h-52v78h52v196h102v-196h238v-78h-238v-116q30 30 61 44t74 14q81 0 126.5 -50.5t45.5 -136.5v-240v0z" />
    <glyph glyph-name="afii10052" unicode="&#x403;" horiz-adv-x="565" 
d="M328 765h-76l75 162h112zM206 615v-615h-108v712h438v-97h-330z" />
    <glyph glyph-name="afii10100" unicode="&#x453;" horiz-adv-x="426" 
d="M245 599h-77l76 162h112zM186 418v-418h-102v507h330v-89h-228z" />
    <glyph glyph-name="afii10103" unicode="&#x456;" horiz-adv-x="264" 
d="M198 674q0 -29 -19 -48.5t-47 -19.5q-27 0 -46.5 19.5t-19.5 46.5q0 28 19.5 47t46.5 19t46.5 -19t19.5 -45zM81 0v507h102v-507h-102z" />
    <glyph glyph-name="afii10098" unicode="&#x491;" horiz-adv-x="426" 
d="M187 418v-418h-102v507h231v140h98v-229h-227z" />
    <glyph glyph-name="afii10057" unicode="&#x408;" horiz-adv-x="506" 
d="M423 225q0 -52 -17 -94.5t-48.5 -73t-75.5 -47t-98 -16.5q-55 0 -97 18q-21 8 -36 18t-38 33l72 71q25 -25 46.5 -34t53.5 -9q63 0 96.5 36.5t33.5 105.5v479h108v-487v0z" />
    <glyph glyph-name="afii10053" unicode="&#x404;" horiz-adv-x="574" 
d="M522 78q-29 -26 -50.5 -41t-48.5 -26q-22 -9 -46.5 -13t-51.5 -4q-56 0 -104 19t-85 57q-27 27 -41 59t-20 69t-7 80t-1 91v28q0 50 3.5 87t11.5 65.5t21 50.5t33 42q37 37 84.5 56.5t103.5 19.5q28 0 52 -4t47 -13q26 -11 48 -26t51 -41l-72 -73q-28 28 -56 44t-69 16
q-66 0 -105 -41q-15 -16 -23.5 -37t-13 -43.5t-5.5 -46.5t-2 -47h233v-95h-233q1 -68 9.5 -109.5t34.5 -69.5q39 -41 105 -41q41 0 69 16t56 44l72 -73v0z" />
    <glyph glyph-name="afii10101" unicode="&#x454;" horiz-adv-x="485" 
d="M448 65q-19 -19 -37 -32.5t-37.5 -22t-42 -12.5t-49.5 -4q-109 0 -168 68.5t-59 193.5q0 121 60 189t167 68q27 0 49 -4t41.5 -13t38 -22.5t37.5 -32.5l-68 -66q-24 24 -45.5 36.5t-53.5 12.5q-58 0 -88 -36t-35 -93h181v-72h-182q2 -30 10 -55.5t23 -44t37.5 -29.5
t53.5 -11q32 0 53.5 12t45.5 37l68 -67v0z" />
    <glyph glyph-name="afii10056" unicode="&#x407;" horiz-adv-x="294" 
d="M313 839q0 -24 -17 -40.5t-40 -16.5t-39.5 16.5t-16.5 39.5t16.5 40t39.5 17t40 -16.5t17 -39.5zM93 839q0 -24 -16.5 -40.5t-39.5 -16.5t-39.5 16.5t-16.5 39.5t16.5 40t39.5 17t39.5 -16.5t16.5 -39.5zM93 0v712h108v-712h-108z" />
    <glyph glyph-name="afii10104" unicode="&#x457;" horiz-adv-x="264" 
d="M297 657q0 -24 -17 -40.5t-40 -16.5t-39.5 16.5t-16.5 39.5t16.5 40t39.5 17t40 -16.5t17 -39.5zM77 657q0 -24 -16.5 -40.5t-39.5 -16.5t-39.5 16.5t-16.5 39.5t16.5 40t39.5 17t39.5 -16.5t16.5 -39.5zM81 0v507h102v-507h-102z" />
    <glyph glyph-name="afii10058" unicode="&#x409;" horiz-adv-x="1025" 
d="M988 216q0 -48 -16 -87.5t-45.5 -68t-71 -44.5t-92.5 -16h-274v615h-198l-10 -308q-5 -163 -57.5 -235t-154.5 -72h-54v97h25q29 0 52.5 9t40.5 33.5t27.5 68.5t12.5 113l11 391h413v-280h166q51 0 92.5 -15.5t71 -44t45.5 -68.5t16 -88zM880 216q0 55 -33.5 87t-93.5 32
h-156v-238h156q60 0 93.5 31.5t33.5 87.5z" />
    <glyph glyph-name="afii10106" unicode="&#x459;" horiz-adv-x="824" 
d="M788 158q0 -35 -12 -64t-33.5 -50t-52 -32.5t-67.5 -11.5h-236v418h-148l-6 -215q-3 -107 -46 -155t-114 -48h-55v89h21q15 0 31 5t29.5 20t22.5 41.5t10 69.5l8 282h348v-191h135q37 0 67.5 -11.5t52 -32.5t33.5 -50t12 -64zM687 158q0 35 -21.5 54.5t-59.5 19.5h-119
v-149h119q38 0 59.5 20t21.5 55z" />
    <glyph glyph-name="afii10059" unicode="&#x40a;" horiz-adv-x="1025" 
d="M988 216q0 -48 -16 -87.5t-45.5 -68t-71 -44.5t-92.5 -16h-274v335h-288v-335h-108v712h108v-280h288v280h108v-280h166q51 0 92.5 -15.5t71 -44t45.5 -68.5t16 -88zM880 216q0 55 -33.5 87t-93.5 32h-156v-238h156q60 0 93.5 31.5t33.5 87.5z" />
    <glyph glyph-name="afii10107" unicode="&#x45a;" horiz-adv-x="822" 
d="M786 158q0 -35 -12 -64t-33.5 -50t-52 -32.5t-67.5 -11.5h-236v226h-202v-226h-102v507h102v-191h202v191h102v-191h134q75 0 120 -43.5t45 -114.5zM684 158q0 35 -20.5 54.5t-59.5 19.5h-119v-149h119q39 0 59.5 20t20.5 55z" />
    <glyph glyph-name="afii10105" unicode="&#x458;" horiz-adv-x="264" 
d="M198 674q0 -29 -19 -48.5t-47 -19.5q-27 0 -46.5 19.5t-19.5 46.5q0 28 19.5 47t46.5 19t46.5 -19t19.5 -45zM183 -67q0 -65 -37 -103t-102 -38h-63v88h45q29 0 42 13.5t13 45.5v568h102v-574v0z" />
    <glyph glyph-name="afii10054" unicode="&#x405;" horiz-adv-x="590" 
d="M538 204q0 -99 -70.5 -154.5t-195.5 -55.5q-75 0 -131.5 21.5t-110.5 72.5l72 72q41 -38 82 -53.5t98 -15.5q72 0 110.5 28t38.5 82q0 27 -7.5 45t-21.5 30t-33.5 18.5t-43.5 9.5l-84 12q-187 27 -187 192q0 98 65 154t180 56q66 0 115.5 -19t98.5 -62l-69 -68
q-34 29 -69.5 42t-80.5 13q-64 0 -99.5 -29t-35.5 -82q0 -82 107 -99l81 -12q44 -6 79.5 -20t60 -37.5t38 -58t13.5 -82.5z" />
    <glyph glyph-name="afii10060" unicode="&#x40b;" horiz-adv-x="746" 
d="M560 0v235q0 30 -9.5 50t-24.5 32t-33.5 17t-36.5 5q-17 0 -38.5 -2t-43.5 -5t-41.5 -6t-31.5 -6v-320h-108v615h-165v97h499v-97h-226v-199q12 2 32 5.5t45 7t51 6t50 2.5q38 0 72 -12t60.5 -35t42 -57.5t15.5 -79.5v-253h-109z" />
    <glyph glyph-name="afii10108" unicode="&#x45b;" horiz-adv-x="566" 
d="M388 0v177q0 54 -26.5 82.5t-74.5 28.5q-49 0 -76.5 -29.5t-27.5 -81.5v-177h-102v438h-52v78h52v196h102v-196h238v-78h-238v-116q30 30 60 44t73 14q80 0 127 -50.5t47 -136.5v-193h-102z" />
    <glyph glyph-name="afii10061" unicode="&#x40c;" horiz-adv-x="658" 
d="M338 765h-76l75 162h113zM521 0l-200 351l-120 -144v-207h-108v712h108v-358l290 358h133l-231 -279l255 -433h-127z" />
    <glyph glyph-name="afii10109" unicode="&#x45c;" horiz-adv-x="546" 
d="M284 599h-77l76 162h112zM402 0l-145 225l-73 -83v-142h-102v507h102v-241l202 241h125l-185 -208l201 -299h-125z" />
    <glyph glyph-name="afii10102" unicode="&#x455;" horiz-adv-x="499" 
d="M455 155q0 -77 -57.5 -119t-164.5 -42q-71 0 -124 22q-10 4 -19 8.5t-17.5 10t-18 13.5t-22.5 19l67 67q34 -29 66.5 -41t78.5 -12q54 0 83 18.5t29 52.5q0 53 -68 59l-82 7q-149 12 -149 138q0 73 53 115t146 42q31 0 61 -5t55 -15q19 -7 31.5 -14t32.5 -23l-64 -65
q-28 22 -57.5 29.5t-64.5 7.5q-46 0 -70.5 -17t-24.5 -49q0 -51 70 -57l80 -7q150 -14 150 -143z" />
    <glyph glyph-name="afii10062" unicode="&#x40e;" horiz-adv-x="564" 
d="M453 893q-10 -68 -50 -104t-111 -36q-72 0 -112 36t-49 104h73q7 -29 27.5 -47t60.5 -18q41 0 61 18t26 47h74v0zM303 116q-21 -49 -56.5 -82.5t-93.5 -33.5h-74v97h51q32 0 51.5 14t31.5 43l25 58l-231 500h114l170 -381l153 381h114z" />
    <glyph glyph-name="afii10110" unicode="&#x45e;" horiz-adv-x="471" 
d="M396 718q-10 -68 -50 -103.5t-111 -35.5q-72 0 -111.5 35.5t-49.5 103.5h73q7 -29 27.5 -47t61.5 -18t60.5 18t26.5 47h73v0zM240 -101q-19 -52 -52.5 -76t-88.5 -24h-41v92h26q16 0 27 2t19.5 8t14.5 16.5t12 26.5l28 80l-178 483h109l121 -358l118 358h109z" />
    <glyph glyph-name="afii10145" unicode="&#x40f;" horiz-adv-x="691" 
d="M398 0v-170h-105v170h-200v712h108v-615h288v615h108v-712h-199z" />
    <glyph glyph-name="afii10193" unicode="&#x45f;" horiz-adv-x="568" 
d="M332 0v-140h-97v140h-154v507h102v-418h202v418h102v-507h-155z" />
    <glyph glyph-name="afii61352" unicode="&#x2116;" horiz-adv-x="964" 
d="M900 268q0 -61 -38.5 -98.5t-100.5 -37.5q-64 0 -102.5 37.5t-38.5 98.5v102q0 61 38.5 98.5t102.5 37.5q62 0 100.5 -37.5t38.5 -98.5v-102v0zM623 0v80h280v-80h-280zM469 0l-292 513v-513h-102v712h92l291 -512v512h103v-712h-92zM822 367q0 69 -62 69q-61 0 -61 -69
v-96q0 -69 62 -69q61 0 61 69v96z" />
    <glyph glyph-name="afii10023" unicode="&#x401;" horiz-adv-x="603" 
d="M477 839q0 -24 -16.5 -40.5t-39.5 -16.5t-39.5 16.5t-16.5 39.5t16.5 40t39.5 17t39.5 -16.5t16.5 -39.5zM258 839q0 -24 -16.5 -40.5t-39.5 -16.5t-39.5 16.5t-16.5 39.5t16.5 40t39.5 17t39.5 -16.5t16.5 -39.5zM93 0v712h456v-97h-348v-208h296v-96h-296v-214h348v-97
h-456z" />
    <glyph glyph-name="afii10071" unicode="&#x451;" horiz-adv-x="539" 
d="M439 657q0 -24 -17 -40.5t-40 -16.5t-39.5 16.5t-16.5 39.5t16.5 40t39.5 17t40 -16.5t17 -39.5zM219 657q0 -24 -16.5 -40.5t-39.5 -16.5t-39.5 16.5t-16.5 39.5t16.5 40t39.5 17t39.5 -16.5t16.5 -39.5zM156 223q1 -32 8.5 -58t23 -45t40.5 -29t61 -10q38 0 65 13.5
t54 39.5l64 -61q-43 -42 -84.5 -60.5t-102.5 -18.5q-115 0 -172.5 66t-57.5 196q0 60 15 107.5t42.5 80.5t67.5 51t90 18q49 0 88.5 -17t67.5 -49t43 -77t15 -101v-46h-328zM384 295q-2 26 -8.5 50t-19.5 42.5t-34 29.5t-52 11t-52 -11t-34.5 -29.5t-20 -42.5t-7.5 -50h228
v0z" />
    <glyph glyph-name="afii10097" unicode="&#x44f;" horiz-adv-x="536" 
d="M353 0v186h-93l-96 -186h-120l114 205q-49 14 -78 52t-29 93q0 35 12 63.5t34 49.5t52.5 32.5t66.5 11.5h239v-507h-102zM354 422h-121q-38 0 -59.5 -20.5t-21.5 -55.5t21.5 -55.5t59.5 -20.5h121v152z" />
    <glyph glyph-name="afii10065" unicode="&#x430;" horiz-adv-x="530" 
d="M354 0v46q-16 -16 -30.5 -26t-30 -15.5t-33.5 -7.5t-41 -2q-85 0 -130.5 39.5t-45.5 113.5q0 69 46.5 108t127.5 39h136v37q0 50 -27 72t-87 22q-42 0 -68 -13q-11 -5 -20.5 -13.5t-20.5 -22.5l-67 63q21 23 34 34t32 19q41 20 113 20q212 0 212 -174v-339h-100zM353 223
h-120q-91 0 -91 -72q0 -37 24 -54.5t76 -17.5q60 0 85.5 24t25.5 80v40z" />
    <glyph glyph-name="afii10066" unicode="&#x431;" horiz-adv-x="537" 
d="M479 251q0 -70 -14 -120t-47 -84q-26 -26 -62 -39.5t-83 -13.5q-68 0 -111 28.5t-66 79.5q-17 38 -23 90.5t-6 105.5v42q0 59 1.5 107.5t9.5 88t24.5 71.5t46.5 56q29 23 67 34.5t78 17t77.5 7t64.5 3.5v-92q-22 -2 -53.5 -3t-64.5 -5t-64.5 -13t-54.5 -27
q-19 -16 -29.5 -37.5t-15.5 -43t-6 -41t-2 -31.5h3q9 15 23 27.5t32.5 22.5t40 15.5t43.5 5.5q53 0 89 -17.5t59 -50.5t33 -79.5t10 -104.5zM378 249q0 45 -6 77t-23 54q-14 17 -34.5 25t-42.5 8q-25 0 -44 -9.5t-32 -25.5q-17 -22 -22 -53.5t-5 -75.5q0 -31 4 -67.5
t24 -62.5q28 -34 76 -34q32 0 52.5 14t32 37t16 52.5t4.5 60.5z" />
    <glyph glyph-name="afii10067" unicode="&#x432;" horiz-adv-x="545" 
d="M485 143q0 -66 -40.5 -104.5t-112.5 -38.5h-251v507h243q70 0 111.5 -37t41.5 -99q0 -76 -71 -109q38 -17 58.5 -46t20.5 -73zM377 364q0 30 -19.5 46.5t-55.5 16.5h-120v-128h120q75 0 75 65zM385 150q0 33 -20.5 51.5t-56.5 18.5h-126v-141h126q36 0 56.5 19.5
t20.5 51.5z" />
    <glyph glyph-name="afii10068" unicode="&#x433;" horiz-adv-x="426" 
d="M187 418v-418h-102v507h329v-89h-227z" />
    <glyph glyph-name="afii10069" unicode="&#x434;" horiz-adv-x="574" 
d="M451 -140v140h-335v-140h-97v229h58q14 33 24.5 65.5t18.5 72.5t12 90t4 119v71h343v-418h70v-229h-98zM377 418h-144v-17q0 -12 -0.5 -25.5t-0.5 -25.5v-15q-1 -42 -5 -76.5t-11 -63.5t-15.5 -55t-18.5 -51h195v329z" />
    <glyph glyph-name="afii10070" unicode="&#x435;" horiz-adv-x="539" 
d="M156 223q1 -32 8.5 -58t23 -45t40.5 -29t61 -10q38 0 65 13.5t54 39.5l64 -61q-43 -42 -84.5 -60.5t-102.5 -18.5q-115 0 -172.5 66t-57.5 196q0 60 15 107.5t42.5 80.5t67.5 51t90 18q49 0 88.5 -17t67.5 -49t43 -77t15 -101v-46h-328zM384 295q-2 26 -8.5 50
t-19.5 42.5t-34 29.5t-52 11t-52 -11t-34.5 -29.5t-20 -42.5t-7.5 -50h228v0z" />
    <glyph glyph-name="afii10072" unicode="&#x436;" horiz-adv-x="742" 
d="M613 0l-125 217l-66 -83v-134h-102v134l-66 83l-125 -217h-120l179 297l-162 210h121l173 -242v242h102v-242l174 242h119l-161 -210l179 -297h-120z" />
    <glyph glyph-name="afii10073" unicode="&#x437;" horiz-adv-x="489" 
d="M430 147q0 -35 -15.5 -63t-42 -48t-61.5 -31t-74 -11q-60 0 -114 15.5t-99 57.5l61 65q30 -28 63 -39.5t75 -11.5q20 0 39 4.5t34 13.5t24.5 22.5t9.5 31.5q0 35 -24 51.5t-64 16.5h-76v77h75q37 0 59 18t22 50t-27 48t-72 16q-66 0 -122 -39l-57 65q42 32 91.5 44.5
t104.5 12.5q37 0 70 -9t58 -26t39.5 -43t14.5 -59q0 -37 -19.5 -67t-54.5 -44q37 -14 59.5 -45t22.5 -73z" />
    <glyph glyph-name="afii10074" unicode="&#x438;" horiz-adv-x="583" 
d="M400 0v349l-217 -349h-102v507h102v-344l217 344h102v-507h-102z" />
    <glyph glyph-name="afii10075" unicode="&#x439;" horiz-adv-x="583" 
d="M453 718q-10 -68 -50 -103.5t-112 -35.5t-111.5 35.5t-49.5 103.5h73q7 -29 27.5 -47t61.5 -18t61 18t26 47h74v0zM400 0v349l-217 -349h-102v507h102v-344l217 344h102v-507h-102z" />
    <glyph glyph-name="afii10076" unicode="&#x43a;" horiz-adv-x="546" 
d="M402 0l-145 225l-73 -83v-142h-102v507h102v-241l202 241h125l-185 -208l201 -299h-125z" />
    <glyph glyph-name="afii10077" unicode="&#x43b;" horiz-adv-x="570" 
d="M386 0v418h-148l-6 -215q-3 -107 -46 -155t-114 -48h-55v89h21q15 0 31 5t29.5 20t22.5 41.5t10 69.5l8 282h349v-507h-102z" />
    <glyph glyph-name="afii10078" unicode="&#x43c;" horiz-adv-x="667" 
d="M483 0v325l-117 -232h-64l-119 232v-325h-102v507h101l152 -302l151 302h100v-507h-102z" />
    <glyph glyph-name="afii10079" unicode="&#x43d;" horiz-adv-x="568" 
d="M385 0v216h-202v-216h-102v507h102v-202h202v202h102v-507h-102z" />
    <glyph glyph-name="afii10080" unicode="&#x43e;" horiz-adv-x="537" 
d="M479 256q0 -38 -3 -68t-10 -54t-18.5 -43.5t-27.5 -36.5q-58 -60 -152 -60q-93 0 -151 60q-32 34 -46 79.5t-14 120.5q0 74 14 119.5t46 79.5q58 60 151 60q94 0 152 -60q32 -33 45.5 -78.5t13.5 -118.5zM378 252q0 48 -6 81.5t-26 55.5q-14 15 -33 24t-45 9t-45 -9
t-33 -25q-19 -23 -25 -58t-6 -80q0 -51 8 -82t25 -51q27 -32 76 -32q26 0 45.5 9t33.5 25q18 22 24.5 55t6.5 78z" />
    <glyph glyph-name="afii10081" unicode="&#x43f;" horiz-adv-x="568" 
d="M385 0v418h-202v-418h-102v507h406v-507h-102z" />
    <glyph glyph-name="afii10082" unicode="&#x440;" horiz-adv-x="553" 
d="M495 252q0 -83 -13 -132.5t-43 -79.5q-46 -46 -126 -46q-44 0 -72.5 13t-57.5 45v-257h-102v712h100v-53q15 16 29 27t29 18t32.5 10.5t40.5 3.5q68 0 112.5 -32.5t59.5 -98.5q6 -27 8.5 -56t2.5 -74zM394 254q0 91 -24.5 129.5t-81.5 38.5q-62 0 -86 -49
q-10 -20 -14.5 -49.5t-4.5 -73.5q0 -88 24.5 -126.5t81.5 -38.5t81 39t24 130z" />
    <glyph glyph-name="afii10083" unicode="&#x441;" horiz-adv-x="485" 
d="M448 66q-24 -24 -39.5 -35t-35.5 -20q-38 -17 -91 -17q-108 0 -167.5 68.5t-59.5 193.5q0 121 60 189t167 68q51 0 91 -17q20 -9 35.5 -20t39.5 -35l-69 -67q-23 23 -43.5 35.5t-54.5 12.5q-62 0 -93 -42.5t-31 -125.5q0 -169 124 -169q17 0 30 3.5t24.5 9.5t21.5 15
t22 21l69 -68v0z" />
    <glyph glyph-name="afii10084" unicode="&#x442;" horiz-adv-x="440" 
d="M274 418v-418h-102v418h-161v89h418v-89h-155z" />
    <glyph glyph-name="afii10085" unicode="&#x443;" horiz-adv-x="471" 
d="M240 -101q-19 -52 -52.5 -76t-88.5 -24h-41v92h26q16 0 27 2t19.5 8t14.5 16.5t12 26.5l28 80l-178 483h109l121 -358l118 358h109z" />
    <glyph glyph-name="afii10086" unicode="&#x444;" horiz-adv-x="709" 
d="M656 256q0 -128 -64 -193.5t-187 -67.5v-200h-102v200q-123 2 -187 67.5t-64 193.5q0 253 251 256v200h102v-200q251 -3 251 -256zM554 254q0 78 -35 122.5t-115 45.5v-337q75 1 112.5 45t37.5 124zM304 422q-80 -1 -115 -45.5t-35 -122.5q0 -80 37.5 -124t112.5 -45v337
z" />
    <glyph glyph-name="afii10087" unicode="&#x445;" horiz-adv-x="503" 
d="M359 0l-107 173l-107 -173h-123l174 259l-167 248h123l100 -165l100 165h122l-167 -248l174 -259h-122z" />
    <glyph glyph-name="afii10088" unicode="&#x446;" horiz-adv-x="587" 
d="M461 -140v140h-380v507h102v-418h202v418h102v-418h72v-229h-98z" />
    <glyph glyph-name="afii10089" unicode="&#x447;" horiz-adv-x="537" 
d="M354 0v203q-23 -10 -59.5 -18.5t-71.5 -8.5q-71 0 -114.5 39.5t-43.5 108.5v183h102v-161q0 -44 24.5 -62t57.5 -17q29 0 59 9t46 20v211h102v-507h-102z" />
    <glyph glyph-name="afii10090" unicode="&#x448;" horiz-adv-x="812" 
d="M81 0v507h102v-418h172v418h102v-418h171v418h102v-507h-649z" />
    <glyph glyph-name="afii10091" unicode="&#x449;" horiz-adv-x="830" 
d="M705 -140v140h-624v507h102v-418h172v418h102v-418h171v418h102v-418h72v-229h-97z" />
    <glyph glyph-name="afii10092" unicode="&#x44a;" horiz-adv-x="609" 
d="M571 158q0 -71 -45 -114.5t-120 -43.5h-235v418h-159v89h261v-191h133q75 0 120 -43.5t45 -114.5zM470 158q0 35 -21 54.5t-59 19.5h-117v-149h117q38 0 59 20t21 55z" />
    <glyph glyph-name="afii10093" unicode="&#x44b;" horiz-adv-x="741" 
d="M551 0v507h102v-507h-102zM481 158q0 -35 -12 -64t-33.5 -50t-52 -32.5t-67.5 -11.5h-235v507h102v-191h133q37 0 67.5 -11.5t52 -32.5t33.5 -50t12 -64zM380 158q0 35 -21.5 54.5t-59.5 19.5h-116v-149h116q38 0 59.5 20t21.5 55z" />
    <glyph glyph-name="afii10094" unicode="&#x44c;" horiz-adv-x="518" 
d="M481 158q0 -71 -45 -114.5t-119 -43.5h-236v507h102v-191h134q74 0 119 -43.5t45 -114.5zM380 158q0 35 -21 54.5t-59 19.5h-117v-149h117q38 0 59 20t21 55z" />
    <glyph glyph-name="afii10095" unicode="&#x44d;" horiz-adv-x="485" 
d="M430 256q0 -125 -59.5 -193.5t-168.5 -68.5q-54 0 -90.5 16.5t-74.5 54.5l68 67q25 -25 46 -37t53 -12q31 0 54 11t38 29.5t23 44t9 55.5h-177v72h177q-6 57 -36 93t-89 36q-31 0 -52.5 -12.5t-45.5 -36.5l-68 66q38 38 74.5 55t90.5 17q109 0 168.5 -68t59.5 -189z" />
    <glyph glyph-name="afii10096" unicode="&#x44e;" horiz-adv-x="752" 
d="M694 256q0 -76 -13.5 -122t-45.5 -80q-58 -60 -152 -60q-83 0 -137 48q-33 29 -51.5 71.5t-20.5 102.5h-91v-216h-102v507h102v-204h91q7 107 71 162q56 48 138 48q102 0 158 -67q28 -33 40.5 -78t12.5 -112zM593 254q0 52 -7 82.5t-24 50.5q-27 35 -79 35q-50 0 -79 -35
q-17 -20 -23.5 -50.5t-6.5 -81.5t6.5 -82t22.5 -52q29 -36 80 -36t80 37q16 20 23 50.5t7 81.5z" />
    <glyph glyph-name="hyphenminus" horiz-adv-x="426" 
d="M67 230v95h292v-95h-292z" />
    <glyph glyph-name="brokenbar" unicode="&#xa6;" horiz-adv-x="344" 
d="M118 436v350h102v-350h-102zM118 -74v350h102v-350h-102z" />
  </font>
</defs>
</svg>
